<?xml version="1.0" encoding="UTF-8" standalone="no"?>
<!-- Created with Inkscape (http://www.inkscape.org/) -->

<svg
   xmlns:dc="http://purl.org/dc/elements/1.1/"
   xmlns:cc="http://creativecommons.org/ns#"
   xmlns:rdf="http://www.w3.org/1999/02/22-rdf-syntax-ns#"
   xmlns:svg="http://www.w3.org/2000/svg"
   xmlns="http://www.w3.org/2000/svg"
   xmlns:sodipodi="http://sodipodi.sourceforge.net/DTD/sodipodi-0.dtd"
   xmlns:inkscape="http://www.inkscape.org/namespaces/inkscape"
   width="5000"
   height="5000"
   viewBox="0 0 5000 4999.9999"
   id="svg2"
   version="1.1"
   inkscape:version="0.92.4 (5da689c313, 2019-01-14)"
   sodipodi:docname="circle-php.svg"
   inkscape:export-filename="/home/felicianotech/Projects/cloud-unpacked/graphics/logos/master/master.png"
   inkscape:export-xdpi="11.9"
   inkscape:export-ydpi="11.9">
  <defs
     id="defs4">
    <path
       d="M34,15.167c0,0-7.333,5.833-9.333,6C22.667,21.333,14,27,14,27l-5.667-0.166L2,19.667l8.667,64.752h100.581    l-70.51-70.51L34,15.167z"
       id="SVGID_1_" />
    <filter
       height="70.51"
       width="109.248"
       y="13.909"
       x="2"
       filterUnits="userSpaceOnUse"
       id="Adobe_OpacityMaskFilter">
      <feColorMatrix
         id="feColorMatrix1326"
         values="1 0 0 0 0  0 1 0 0 0  0 0 1 0 0  0 0 0 1 0"
         type="matrix" />
    </filter>
    <path
       d="M18.692,15.471h3.947v-3.866h-3.947V15.471z M4.164,15.47h3.947v-3.866H4.164V15.47z M8.111,11.604h0.002    H8.111z M9.008,15.47h3.947v-3.866H9.008V15.47z M13.851,15.47h3.946v-3.866h-3.946V15.47z M23.535,15.47h3.946v-3.866h-3.946    V15.47z M7.588,22.131c0-1.129,0.936-2.046,2.087-2.046c1.151,0,2.089,0.917,2.089,2.046c0,1.127-0.937,2.046-2.089,2.046    C8.526,24.177,7.588,23.258,7.588,22.131 M32.206,9.347c-0.835,0.948-1.084,2.522-0.97,3.731c0.084,0.89,0.369,1.791,0.928,2.506    c-0.425,0.25-0.908,0.447-1.338,0.591c-0.874,0.289-1.825,0.45-2.75,0.45H2.111l-0.056,0.589c-0.184,1.955,0.089,3.911,0.915,5.7    l0.354,0.711l0.041,0.066c2.443,4.063,6.729,5.774,11.402,5.774c9.046,0,16.507-3.957,19.933-12.318    c2.289,0.115,4.631-0.547,5.752-2.689l0.286-0.549l-0.542-0.305c-1.327-0.749-3.091-0.853-4.594-0.418v0.001    c-0.186-1.567-1.235-2.939-2.484-3.922l-0.495-0.389L32.206,9.347z M9.008,10.512h3.947V6.645H9.008V10.512z M13.851,10.512h3.946    V6.645h-3.946V10.512z M18.692,10.512h3.947V6.645h-3.947V10.512z M18.692,5.554h3.947V1.687h-3.947V5.554z"
       id="SVGID_6_" />
    <clipPath
       id="clipPath1164"
       clipPathUnits="userSpaceOnUse">
      <path
         inkscape:connector-curvature="0"
         id="path1162"
         d="m 2764.8,0 c 1526.93,0 2764.81,651.164 2764.81,1454.39 0,803.24 -1237.88,1454.4 -2764.81,1454.4 C 1237.87,2908.79 0,2257.63 0,1454.39 0,651.164 1237.87,0 2764.8,0" />
    </clipPath>
  </defs>
  <sodipodi:namedview
     id="base"
     pagecolor="#000000"
     bordercolor="#666666"
     borderopacity="1.0"
     inkscape:pageopacity="0"
     inkscape:pageshadow="2"
     inkscape:zoom="0.088388348"
     inkscape:cx="4049.8377"
     inkscape:cy="195.94416"
     inkscape:document-units="px"
     inkscape:current-layer="layer1"
     showgrid="false"
     inkscape:window-width="2638"
     inkscape:window-height="2032"
     inkscape:window-x="108"
     inkscape:window-y="54"
     inkscape:window-maximized="0"
     fit-margin-top="0"
     fit-margin-left="0"
     fit-margin-right="0"
     fit-margin-bottom="0"
     showborder="true"
     units="px"
     inkscape:pagecheckerboard="true" />
  <metadata
     id="metadata7">
    <rdf:RDF>
      <cc:Work
         rdf:about="">
        <dc:format>image/svg+xml</dc:format>
        <dc:type
           rdf:resource="http://purl.org/dc/dcmitype/StillImage" />
        <dc:title></dc:title>
      </cc:Work>
    </rdf:RDF>
  </metadata>
  <g
     inkscape:label="Layer 1"
     inkscape:groupmode="layer"
     id="layer1"
     transform="translate(2386.9101,-3798.7827)">
    <circle
       style="fill:#617cbe;fill-opacity:1"
       id="path864"
       cx="113.0899"
       cy="6298.7827"
       r="2500" />
    <circle
       style="fill:#000000;fill-opacity:1;stroke:none;stroke-width:2;stroke-linecap:square;stroke-linejoin:miter;stroke-miterlimit:4;stroke-dasharray:none;stroke-opacity:1"
       id="path4304-4-6"
       cx="2523.1167"
       cy="-317.93839"
       r="0" />
    <circle
       style="fill:#000000;fill-opacity:1;stroke:none;stroke-width:2;stroke-linecap:square;stroke-linejoin:miter;stroke-miterlimit:4;stroke-dasharray:none;stroke-opacity:1"
       id="path4304-4-2"
       cx="320.25952"
       cy="862.34735"
       r="0" />
    <circle
       style="fill:#000000;fill-opacity:1;stroke:none;stroke-width:2;stroke-linecap:square;stroke-linejoin:miter;stroke-miterlimit:4;stroke-dasharray:none;stroke-opacity:1"
       id="path4304-4-0"
       cx="2523.1167"
       cy="862.34735"
       r="0" />
    <circle
       style="fill:#000000;fill-opacity:1;stroke:none;stroke-width:2;stroke-linecap:square;stroke-linejoin:miter;stroke-miterlimit:4;stroke-dasharray:none;stroke-opacity:1"
       id="path4304-4-0-6"
       cx="1385.9738"
       cy="2456.3474"
       r="0" />
    <circle
       style="fill:#000000;fill-opacity:1;stroke:none;stroke-width:2;stroke-linecap:square;stroke-linejoin:miter;stroke-miterlimit:4;stroke-dasharray:none;stroke-opacity:1"
       id="path4304-4-9-6"
       cx="2458.947"
       cy="2162.2476"
       r="0" />
    <circle
       style="fill:#000000;fill-opacity:1;stroke:none;stroke-width:2;stroke-linecap:square;stroke-linejoin:miter;stroke-miterlimit:4;stroke-dasharray:none;stroke-opacity:1"
       id="path4304-4-9-0"
       cx="2475.4346"
       cy="-339.29968"
       r="0" />
    <g
       id="g3497"
       transform="matrix(26.102598,0,0,26.102598,-1136.9101,5670.702)">
      <path
         id="path3480"
         d="m 7.579,10.123 h 14.204 c 4.169,0.035 7.19,1.237 9.063,3.604 1.873,2.367 2.491,5.6 1.855,9.699 -0.247,1.873 -0.795,3.71 -1.643,5.512 -0.813,1.802 -1.943,3.427 -3.392,4.876 -1.767,1.837 -3.657,3.003 -5.671,3.498 -2.014,0.495 -4.099,0.742 -6.254,0.742 H 9.381 L 7.367,48.124 H 0 L 7.579,10.123 v 0 m 6.201,6.042 -3.18,15.9 c 0.212,0.035 0.424,0.053 0.636,0.053 0.247,0 0.495,0 0.742,0 3.392,0.035 6.219,-0.3 8.48,-1.007 2.261,-0.742 3.781,-3.321 4.558,-7.738 0.636,-3.71 0,-5.848 -1.908,-6.413 -1.873,-0.565 -4.222,-0.83 -7.049,-0.795 -0.424,0.035 -0.83,0.053 -1.219,0.053 -0.353,0 -0.724,0 -1.113,0 l 0.053,-0.053"
         inkscape:connector-curvature="0" />
      <path
         id="path3482"
         d="m 41.093,0 h 7.314 L 46.34,10.123 h 6.572 c 3.604,0.071 6.289,0.813 8.056,2.226 1.802,1.413 2.332,4.099 1.59,8.056 l -3.551,17.649 h -7.42 L 54.979,21.2 c 0.353,-1.767 0.247,-3.021 -0.318,-3.763 -0.565,-0.742 -1.784,-1.113 -3.657,-1.113 L 45.121,16.271 40.775,38.054 H 33.461 L 41.093,0 v 0"
         inkscape:connector-curvature="0" />
      <path
         id="path3484"
         d="m 70.412,10.123 h 14.204 c 4.169,0.035 7.19,1.237 9.063,3.604 1.873,2.367 2.491,5.6 1.855,9.699 -0.247,1.873 -0.795,3.71 -1.643,5.512 -0.813,1.802 -1.943,3.427 -3.392,4.876 -1.767,1.837 -3.657,3.003 -5.671,3.498 -2.014,0.495 -4.099,0.742 -6.254,0.742 h -6.36 L 70.2,48.124 h -7.367 l 7.579,-38.001 v 0 m 6.201,6.042 -3.18,15.9 c 0.212,0.035 0.424,0.053 0.636,0.053 0.247,0 0.495,0 0.742,0 3.392,0.035 6.219,-0.3 8.48,-1.007 2.261,-0.742 3.781,-3.321 4.558,-7.738 0.636,-3.71 0,-5.848 -1.908,-6.413 -1.873,-0.565 -4.222,-0.83 -7.049,-0.795 -0.424,0.035 -0.83,0.053 -1.219,0.053 -0.353,0 -0.724,0 -1.113,0 l 0.053,-0.053"
         inkscape:connector-curvature="0" />
    </g>
  </g>
  <style
     id="style1118"
     type="text/css">
	.st0{fill:#2DBCAF;}
	.st1{fill:#5DC9E1;}
	.st2{fill:#FDDD00;}
	.st3{fill:#CE3262;}
	.st4{fill:#00ACD7;}
	.st5{fill:#FFFFFF;}
</style>
</svg>
